<svg width="44" height="44" viewBox="0 0 44 44" fill="none" xmlns="http://www.w3.org/2000/svg">
<path d="M43.699 23.206C43.9475 20.0489 43.3494 16.8827 41.9665 14.0338C39.6773 16.2089 36.9713 17.8977 34.0116 18.9985C34.2496 21.9196 34.1178 24.8591 33.6193 27.7472C37.2208 26.8401 40.6334 25.3027 43.699 23.206ZM30.7061 28.3357C31.2917 25.5362 31.4964 22.6705 31.3148 19.8162C29.5695 20.2323 27.749 20.4523 25.8771 20.4523C24.0053 20.4523 22.1848 20.2323 20.4395 19.8162C20.2621 22.6704 20.4668 25.5356 21.0481 28.3357C24.2488 28.8263 27.5055 28.8263 30.7061 28.3357ZM21.7925 31.2122C24.5061 31.5332 27.2481 31.5332 29.9618 31.2122C29.0292 34.2144 27.6523 37.0601 25.8771 39.6547C24.1019 37.0601 22.7251 34.2144 21.7925 31.2122ZM18.135 27.749C17.6338 24.86 17.502 21.9189 17.7426 18.9967C14.7823 17.8962 12.0757 16.2073 9.78597 14.032C8.4033 16.8816 7.80587 20.0485 8.0553 23.206C11.1209 25.3027 14.5334 26.8419 18.135 27.749ZM43.0298 26.8727C42.1042 30.0094 40.337 32.8326 37.9201 35.0359C35.5032 37.2392 32.5289 38.7383 29.3201 39.3705C30.9271 36.6686 32.1535 33.758 32.9648 30.7208C36.5022 29.9794 39.8995 28.6812 43.0298 26.8745V26.8727ZM8.72447 26.8727C11.8081 28.6528 15.1961 29.9673 18.7895 30.7208C19.6007 33.758 20.8272 36.6686 22.4341 39.3705C19.2256 38.7384 16.2515 37.2396 13.8346 35.0367C11.4177 32.8337 9.65039 30.0109 8.72447 26.8745V26.8727ZM29.3201 4.28233C33.8626 5.17518 37.8819 7.79469 40.5328 11.59C38.576 13.567 36.2401 15.1285 33.6651 16.1807C32.9713 11.9783 31.4977 7.94284 29.3201 4.28233ZM25.8771 4C28.5527 7.90885 30.3106 12.3717 31.0196 17.0552C29.3751 17.4768 27.6518 17.7023 25.8771 17.7023C24.1025 17.7023 22.3791 17.4787 20.7346 17.0552C21.4436 12.3716 23.2015 7.90882 25.8771 4ZM22.4341 4.28233C20.2566 7.94282 18.7829 11.9783 18.0891 16.1807C15.5141 15.1285 13.1782 13.5671 11.2215 11.59C13.8725 7.79524 17.8919 5.17454 22.4341 4.28233Z" fill="white"/>
</svg>
