<svg width="44" height="44" viewBox="0 0 44 44" fill="none" xmlns="http://www.w3.org/2000/svg">
<path d="M33.6875 4.125C31.79 4.125 30.25 5.665 30.25 7.5625V36.4375C30.25 38.335 31.79 39.875 33.6875 39.875H35.0625C36.96 39.875 38.5 38.335 38.5 36.4375V7.5625C38.5 5.66317 36.96 4.125 35.0625 4.125H33.6875ZM17.875 15.8125C17.875 13.9132 19.415 12.375 21.3125 12.375H22.6875C24.5868 12.375 26.125 13.915 26.125 15.8125V36.4375C26.125 38.335 24.585 39.875 22.6875 39.875H21.3125C20.4008 39.875 19.5265 39.5128 18.8818 38.8682C18.2372 38.2235 17.875 37.3492 17.875 36.4375V15.8125ZM5.5 24.0625C5.5 22.1632 7.04 20.625 8.9375 20.625H10.3125C12.2118 20.625 13.75 22.165 13.75 24.0625V36.4375C13.75 38.335 12.21 39.875 10.3125 39.875H8.9375C8.02582 39.875 7.15148 39.5128 6.50682 38.8682C5.86216 38.2235 5.5 37.3492 5.5 36.4375V24.0625Z" fill="white"/>
</svg>
